<svg width="288" height="73" viewBox="0 0 288 73" fill="none" xmlns="http://www.w3.org/2000/svg">
<path d="M69.0699 29.85L56.9199 60.05C56.7866 60.3833 56.6033 60.6333 56.3699 60.8C56.1366 60.9667 55.8699 61.05 55.5699 61.05C55.1033 61.05 54.7533 60.9333 54.5199 60.7C54.2866 60.4333 54.1533 60.1167 54.1199 59.75C54.0866 59.5833 54.1033 59.3833 54.1699 59.15L67.3699 26.85C67.5366 26.4833 67.7366 26.2333 67.9699 26.1C68.2366 25.9333 68.5366 25.85 68.8699 25.85C69.2033 25.85 69.4866 25.95 69.7199 26.15C69.9866 26.3167 70.1866 26.55 70.3199 26.85L83.4699 59C83.5366 59.2 83.5699 59.4 83.5699 59.6C83.5699 60.0667 83.4199 60.4333 83.1199 60.7C82.8199 60.9333 82.4699 61.05 82.0699 61.05C81.7366 61.05 81.4366 60.9667 81.1699 60.8C80.9366 60.6 80.7533 60.35 80.6199 60.05L68.1699 29.65L69.0699 29.85ZM59.8199 50.9L61.0699 47.95H76.5699L77.1699 50.9H59.8199ZM96.993 24.2C97.493 24.2 98.0263 24.25 98.593 24.35C99.193 24.45 99.7096 24.6333 100.143 24.9C100.576 25.1333 100.793 25.5 100.793 26C100.793 26.3667 100.66 26.7 100.393 27C100.126 27.2667 99.8263 27.4 99.493 27.4C99.1596 27.4 98.743 27.3167 98.243 27.15C97.743 26.95 97.2096 26.85 96.643 26.85C95.943 26.85 95.343 27.0167 94.843 27.35C94.343 27.65 93.9596 28.1 93.693 28.7C93.4263 29.2667 93.293 29.9667 93.293 30.8V59.5C93.293 59.9 93.143 60.25 92.843 60.55C92.5763 60.85 92.2263 61 91.793 61C91.3596 61 90.993 60.85 90.693 60.55C90.4263 60.25 90.293 59.9 90.293 59.5V30.8C90.293 28.6667 90.9096 27.0333 92.143 25.9C93.4096 24.7667 95.0263 24.2 96.993 24.2ZM98.893 35.95C99.293 35.95 99.6263 36.0833 99.893 36.35C100.16 36.6167 100.293 36.95 100.293 37.35C100.293 37.75 100.16 38.0833 99.893 38.35C99.6263 38.6167 99.293 38.75 98.893 38.75H86.643C86.2763 38.75 85.943 38.6167 85.643 38.35C85.3763 38.05 85.243 37.7167 85.243 37.35C85.243 36.9167 85.3763 36.5833 85.643 36.35C85.943 36.0833 86.2763 35.95 86.643 35.95H98.893ZM106.011 61C105.544 61 105.177 60.85 104.911 60.55C104.644 60.25 104.511 59.9 104.511 59.5V37.1C104.511 36.7 104.644 36.35 104.911 36.05C105.211 35.75 105.577 35.6 106.011 35.6C106.444 35.6 106.794 35.75 107.061 36.05C107.361 36.35 107.511 36.7 107.511 37.1V44.6L106.761 44.75C106.861 43.5833 107.144 42.4333 107.611 41.3C108.111 40.1333 108.777 39.0667 109.611 38.1C110.444 37.1333 111.427 36.35 112.561 35.75C113.727 35.15 115.027 34.85 116.461 34.85C117.061 34.85 117.644 34.9833 118.211 35.25C118.777 35.4833 119.061 35.8833 119.061 36.45C119.061 36.95 118.927 37.3333 118.661 37.6C118.394 37.8667 118.077 38 117.711 38C117.411 38 117.077 37.9167 116.711 37.75C116.377 37.5833 115.927 37.5 115.361 37.5C114.427 37.5 113.494 37.7833 112.561 38.35C111.627 38.8833 110.777 39.6167 110.011 40.55C109.244 41.4833 108.627 42.5333 108.161 43.7C107.727 44.8333 107.511 45.9833 107.511 47.15V59.5C107.511 59.9 107.361 60.25 107.061 60.55C106.761 60.85 106.411 61 106.011 61ZM125.399 59.5C125.399 59.9 125.249 60.25 124.949 60.55C124.649 60.85 124.299 61 123.899 61C123.465 61 123.099 60.85 122.799 60.55C122.532 60.25 122.399 59.9 122.399 59.5V36.5C122.399 36.1 122.532 35.75 122.799 35.45C123.099 35.15 123.465 35 123.899 35C124.332 35 124.682 35.15 124.949 35.45C125.249 35.75 125.399 36.1 125.399 36.5V59.5ZM123.899 31.65C123.199 31.65 122.665 31.5 122.299 31.2C121.965 30.8667 121.799 30.4 121.799 29.8V29.3C121.799 28.7 121.982 28.25 122.349 27.95C122.749 27.6167 123.282 27.45 123.949 27.45C124.582 27.45 125.065 27.6167 125.399 27.95C125.765 28.25 125.949 28.7 125.949 29.3V29.8C125.949 30.4 125.765 30.8667 125.399 31.2C125.065 31.5 124.565 31.65 123.899 31.65ZM144.092 34.85C146.359 34.85 148.359 35.4167 150.092 36.55C151.859 37.6833 153.259 39.25 154.292 41.25C155.326 43.2167 155.842 45.5 155.842 48.1C155.842 50.6333 155.326 52.9167 154.292 54.95C153.259 56.9833 151.859 58.5833 150.092 59.75C148.326 60.9167 146.342 61.5 144.142 61.5C142.976 61.5 141.859 61.3167 140.792 60.95C139.759 60.5833 138.809 60.1 137.942 59.5C137.076 58.8667 136.309 58.1333 135.642 57.3C134.976 56.4667 134.442 55.5667 134.042 54.6L134.942 53.95V59.6C134.942 60.0333 134.792 60.4 134.492 60.7C134.226 60.9667 133.876 61.1 133.442 61.1C133.009 61.1 132.642 60.9667 132.342 60.7C132.076 60.4 131.942 60.0333 131.942 59.6V25.55C131.942 25.1167 132.076 24.7667 132.342 24.5C132.609 24.2 132.976 24.05 133.442 24.05C133.876 24.05 134.226 24.2 134.492 24.5C134.792 24.7667 134.942 25.1167 134.942 25.55V42.3L134.242 41.9C134.576 40.8667 135.059 39.9333 135.692 39.1C136.359 38.2333 137.126 37.4833 137.992 36.85C138.859 36.2167 139.809 35.7333 140.842 35.4C141.876 35.0333 142.959 34.85 144.092 34.85ZM143.842 37.65C142.042 37.65 140.459 38.1 139.092 39C137.726 39.9 136.642 41.1333 135.842 42.7C135.076 44.2667 134.692 46.0667 134.692 48.1C134.692 50.1 135.076 51.9167 135.842 53.55C136.642 55.15 137.726 56.4167 139.092 57.35C140.459 58.25 142.042 58.7 143.842 58.7C145.609 58.7 147.159 58.2333 148.492 57.3C149.859 56.3667 150.942 55.1 151.742 53.5C152.542 51.8667 152.942 50.0667 152.942 48.1C152.942 46.0667 152.542 44.2667 151.742 42.7C150.942 41.1333 149.859 39.9 148.492 39C147.159 38.1 145.609 37.65 143.842 37.65ZM162.514 61C162.048 61 161.681 60.85 161.414 60.55C161.148 60.25 161.014 59.9 161.014 59.5V37.1C161.014 36.7 161.148 36.35 161.414 36.05C161.714 35.75 162.081 35.6 162.514 35.6C162.948 35.6 163.298 35.75 163.564 36.05C163.864 36.35 164.014 36.7 164.014 37.1V44.6L163.264 44.75C163.364 43.5833 163.648 42.4333 164.114 41.3C164.614 40.1333 165.281 39.0667 166.114 38.1C166.948 37.1333 167.931 36.35 169.064 35.75C170.231 35.15 171.531 34.85 172.964 34.85C173.564 34.85 174.148 34.9833 174.714 35.25C175.281 35.4833 175.564 35.8833 175.564 36.45C175.564 36.95 175.431 37.3333 175.164 37.6C174.898 37.8667 174.581 38 174.214 38C173.914 38 173.581 37.9167 173.214 37.75C172.881 37.5833 172.431 37.5 171.864 37.5C170.931 37.5 169.998 37.7833 169.064 38.35C168.131 38.8833 167.281 39.6167 166.514 40.55C165.748 41.4833 165.131 42.5333 164.664 43.7C164.231 44.8333 164.014 45.9833 164.014 47.15V59.5C164.014 59.9 163.864 60.25 163.564 60.55C163.264 60.85 162.914 61 162.514 61ZM189.43 61.5C186.863 61.5 184.596 60.95 182.63 59.85C180.663 58.75 179.13 57.2167 178.03 55.25C176.93 53.2833 176.38 50.9833 176.38 48.35C176.38 45.5167 176.93 43.1 178.03 41.1C179.163 39.1 180.613 37.5667 182.38 36.5C184.18 35.4 186.08 34.85 188.08 34.85C189.546 34.85 190.963 35.1167 192.33 35.65C193.73 36.15 194.963 36.9167 196.03 37.95C197.13 38.95 197.996 40.1833 198.63 41.65C199.296 43.1167 199.663 44.8167 199.73 46.75C199.696 47.15 199.53 47.5 199.23 47.8C198.93 48.0667 198.58 48.2 198.18 48.2H178.13L177.53 45.5H197.23L196.58 46.1V45.1C196.446 43.5333 195.946 42.2 195.08 41.1C194.213 40 193.163 39.1667 191.93 38.6C190.696 38.0333 189.413 37.75 188.08 37.75C187.08 37.75 186.046 37.95 184.98 38.35C183.946 38.75 182.996 39.3833 182.13 40.25C181.296 41.0833 180.613 42.1667 180.08 43.5C179.546 44.8 179.28 46.35 179.28 48.15C179.28 50.1167 179.68 51.9 180.48 53.5C181.28 55.1 182.43 56.3667 183.93 57.3C185.463 58.2333 187.28 58.7 189.38 58.7C190.546 58.7 191.596 58.5333 192.53 58.2C193.463 57.8667 194.28 57.4333 194.98 56.9C195.68 56.3333 196.263 55.75 196.73 55.15C197.096 54.85 197.463 54.7 197.83 54.7C198.163 54.7 198.446 54.8333 198.68 55.1C198.946 55.3667 199.08 55.6667 199.08 56C199.08 56.4 198.913 56.75 198.58 57.05C197.58 58.25 196.28 59.3 194.68 60.2C193.08 61.0667 191.33 61.5 189.43 61.5ZM226.046 35.45C226.48 35.45 226.83 35.6 227.096 35.9C227.396 36.2 227.546 36.5667 227.546 37V59.5C227.546 59.9 227.396 60.25 227.096 60.55C226.796 60.85 226.446 61 226.046 61C225.613 61 225.246 60.85 224.946 60.55C224.68 60.25 224.546 59.9 224.546 59.5V53.55L225.396 53.15C225.396 54.0833 225.13 55.0333 224.596 56C224.096 56.9667 223.396 57.8667 222.496 58.7C221.596 59.5333 220.53 60.2167 219.296 60.75C218.096 61.25 216.796 61.5 215.396 61.5C213.13 61.5 211.096 60.9167 209.296 59.75C207.53 58.5833 206.13 56.9833 205.096 54.95C204.096 52.9167 203.596 50.6333 203.596 48.1C203.596 45.5 204.113 43.2167 205.146 41.25C206.18 39.25 207.58 37.6833 209.346 36.55C211.113 35.4167 213.113 34.85 215.346 34.85C216.78 34.85 218.113 35.1 219.346 35.6C220.613 36.1 221.713 36.7833 222.646 37.65C223.58 38.5167 224.296 39.5167 224.796 40.65C225.33 41.75 225.596 42.9 225.596 44.1L224.546 43.35V37C224.546 36.5667 224.68 36.2 224.946 35.9C225.246 35.6 225.613 35.45 226.046 35.45ZM215.646 58.7C217.413 58.7 218.98 58.25 220.346 57.35C221.713 56.4167 222.78 55.15 223.546 53.55C224.346 51.9167 224.746 50.1 224.746 48.1C224.746 46.1333 224.346 44.3667 223.546 42.8C222.78 41.2333 221.713 39.9833 220.346 39.05C218.98 38.1167 217.413 37.65 215.646 37.65C213.913 37.65 212.346 38.1 210.946 39C209.58 39.9 208.496 41.1333 207.696 42.7C206.93 44.2667 206.546 46.0667 206.546 48.1C206.546 50.1 206.93 51.9167 207.696 53.55C208.496 55.15 209.58 56.4167 210.946 57.35C212.313 58.25 213.88 58.7 215.646 58.7ZM232.519 35.55H244.169C244.569 35.55 244.902 35.7 245.169 36C245.435 36.2667 245.569 36.6 245.569 37C245.569 37.3667 245.435 37.6833 245.169 37.95C244.902 38.2167 244.569 38.35 244.169 38.35H232.519C232.119 38.35 231.769 38.2167 231.469 37.95C231.202 37.65 231.069 37.3167 231.069 36.95C231.069 36.55 231.202 36.2167 231.469 35.95C231.769 35.6833 232.119 35.55 232.519 35.55ZM237.669 28.5C238.102 28.5 238.452 28.65 238.719 28.95C239.019 29.25 239.169 29.6 239.169 30V55.1C239.169 56.0333 239.285 56.7333 239.519 57.2C239.785 57.6667 240.119 57.9833 240.519 58.15C240.919 58.2833 241.319 58.35 241.719 58.35C241.985 58.35 242.219 58.3167 242.419 58.25C242.652 58.15 242.902 58.1 243.169 58.1C243.469 58.1 243.719 58.2167 243.919 58.45C244.152 58.6833 244.269 58.9833 244.269 59.35C244.269 59.8167 244.002 60.2167 243.469 60.55C242.935 60.85 242.302 61 241.569 61C241.269 61 240.819 60.9833 240.219 60.95C239.619 60.8833 239.002 60.7 238.369 60.4C237.735 60.0667 237.202 59.5 236.769 58.7C236.369 57.9 236.169 56.75 236.169 55.25V30C236.169 29.6 236.302 29.25 236.569 28.95C236.869 28.65 237.235 28.5 237.669 28.5ZM261.512 35.25C263.612 35.25 265.312 35.7 266.612 36.6C267.912 37.5 268.862 38.7167 269.462 40.25C270.095 41.7833 270.412 43.4833 270.412 45.35V59.5C270.412 59.9 270.262 60.25 269.962 60.55C269.662 60.85 269.312 61 268.912 61C268.445 61 268.079 60.85 267.812 60.55C267.545 60.25 267.412 59.9 267.412 59.5V45.35C267.412 43.9833 267.195 42.75 266.762 41.65C266.362 40.55 265.695 39.6833 264.762 39.05C263.829 38.3833 262.579 38.05 261.012 38.05C259.612 38.05 258.279 38.3833 257.012 39.05C255.779 39.6833 254.779 40.55 254.012 41.65C253.245 42.75 252.862 43.9833 252.862 45.35V59.5C252.862 59.9 252.712 60.25 252.412 60.55C252.112 60.85 251.762 61 251.362 61C250.895 61 250.529 60.85 250.262 60.55C249.995 60.25 249.862 59.9 249.862 59.5V25.5C249.862 25.1 249.995 24.75 250.262 24.45C250.562 24.15 250.929 24 251.362 24C251.795 24 252.145 24.15 252.412 24.45C252.712 24.75 252.862 25.1 252.862 25.5V41.7L251.712 43.45C251.779 42.4167 252.095 41.4167 252.662 40.45C253.262 39.45 254.029 38.5667 254.962 37.8C255.895 37 256.929 36.3833 258.062 35.95C259.195 35.4833 260.345 35.25 261.512 35.25Z" fill="white"/>
<path d="M26.6219 3.7968C25.903 3.9632 25.6934 4.90033 26.2709 5.36572L28.7674 7.37735C17.2968 19.2267 12.9455 34.5773 22.8828 48.2932C23.0159 48.3854 23.1485 48.4774 23.2804 48.5692C21.5217 36.6701 26.8776 24.0825 37.0806 14.076L39.3689 15.92C39.8758 16.3284 40.6289 16.0594 40.7722 15.4187L43.9775 1.09061C44.1209 0.449885 43.5561 -0.123062 42.9252 0.0229833L26.6219 3.7968Z" fill="white"/>
<path d="M27.935 49.9097C27.9397 49.934 27.9478 49.9583 27.9587 49.9805C28.0786 50.2249 28.4441 50.1644 28.4871 49.8949C29.7171 42.1845 33.8984 35.5695 39.7277 31.3402C41.4401 30.0978 41.978 27.6229 40.6556 25.9605C39.6035 24.6378 37.7261 24.3064 36.4206 25.3711C29.8905 30.6972 25.9147 39.332 27.935 49.9097Z" fill="white"/>
<path d="M1.3199 44.4541C1.32731 44.4304 1.33817 44.4072 1.35153 44.3865C1.49852 44.1579 1.85468 44.261 1.86658 44.5337C2.2069 52.337 5.60374 59.4 10.9102 64.2877C12.469 65.7234 12.7203 68.2451 11.2169 69.7404C10.0207 70.9301 8.11803 71.0381 6.94312 69.8267C1.06597 63.7671 -1.89585 54.7222 1.3199 44.4541Z" fill="white"/>
<path d="M19.1454 70.0455C18.6369 70.5876 18.9722 71.4862 19.7069 71.55L36.3677 72.9966C37.0124 73.0526 37.4937 72.4058 37.2644 71.7914L32.1369 58.0516C31.9076 57.4372 31.1251 57.2766 30.6788 57.7523L28.6637 59.9001C16.8509 51.1692 9.7575 39.0036 10.325 26.5938C9.97012 26.9245 9.61037 27.2581 9.2456 27.5945C1.2342 42.6488 8.01465 57.4745 21.3227 67.7248L19.1454 70.0455Z" fill="white"/>
</svg>
